<svg width="178" height="104" viewBox="0 0 178 104" fill="none" xmlns="http://www.w3.org/2000/svg">
<path d="M37.7278 103.921C30.5215 103.087 25.3173 97.6839 21.0062 92.2811C14.8444 83.624 8.881 74.8549 3.12779 65.9208C1.25504 63.4573 -2.66989 60.8114 2.77509 62.9911C6.81724 66.2609 17.3963 56.8817 8.92321 58.5338C0.964451 57.0766 17.1085 55.6255 17.8738 51.5242C24.0772 46.603 26.6799 38.8175 31.17 32.5528C32.7573 27.389 38.2686 25.0784 43.3982 25.8341C43.6787 32.5895 32.3273 28.3546 31.328 35.9414C27.7659 42.1263 24.0313 48.2472 21.0022 54.6989C19.4951 65.2564 19.3331 76.4779 23.2187 86.5544C26.9841 92.0319 30.8762 99.1029 37.8272 100.623C38.8208 100.483 39.0157 104.618 37.7278 103.921ZM139.77 103.855C138.876 98.3404 147.835 99.6021 149.407 94.182C158.365 85.6863 158.421 72.4917 157.973 61.0404C158.322 54.0372 153.76 48.5741 150.762 42.6791C147.583 37.6678 145.439 30.1256 138.41 29.8357C133.084 30.3985 133.867 22.9863 139.276 26.0716C145.741 26.1934 146.823 33.745 150.348 37.6339C154.606 46.3908 161.319 55.1776 171.371 57.3041C173.812 59.5023 160.982 56.907 167.326 60.7524C168.785 66.1508 178.436 61.3612 177.985 62.7427C171.974 68.6783 168.777 76.7727 163.438 83.2515C159.035 89.5166 154.914 96.3969 148.535 100.846C145.866 102.772 142.931 103.472 139.77 103.855ZM71.621 83.0329C71.8437 82.4505 73.44 83.098 71.621 83.0329V83.0329ZM106.039 83.013C105.316 82.3382 107.515 83.3386 106.039 83.013V83.013ZM61.2137 56.0719C63.1751 53.8042 60.6892 57.3001 61.2137 56.0719V56.0719ZM116.681 55.9319C115.758 54.8423 117.816 56.931 116.681 55.9319V55.9319ZM27.425 24.9571C21.1341 20.1898 19.1889 12.0778 18.2871 4.64688C17.1981 -4.32059 29.5128 2.39798 34.244 2.6941C40.059 4.74724 47.514 7.76516 49.9512 13.3984C43.7489 9.93366 36.9992 4.81395 29.3082 3.49459C33.0022 5.93402 41.8718 9.84669 46.1566 14.6467C48.7764 20.9415 38.1958 9.36282 35.0352 8.60219C30.5521 6.27576 23.4452 1.99862 19.9284 2.5752C19.5413 10.6253 23.5126 18.2177 28.5108 24.2549C29.1811 24.9984 27.8268 25.4945 27.425 24.9571ZM149.72 25.0181C152.378 19.942 156.953 14.9677 157.77 8.72532C158.811 5.28468 159.35 -0.88164 154.504 3.32179C146.634 5.94943 139.405 10.6392 133.204 15.9457C127.842 19.3776 135.375 9.9205 138.032 9.9382C141.142 7.65512 147.394 4.60168 148.943 3.49455C141.252 4.81391 134.502 9.9336 128.3 13.3983C130.737 7.7651 138.192 4.74718 144.007 2.69404C148.738 2.39791 161.053 -4.32065 159.964 4.64682C159.105 11.7973 157.284 19.3596 151.67 24.3381C151.265 24.5679 150.36 25.5261 149.72 25.0181Z" fill="#FF7021"/>
<path d="M60.5735 56.9267C60.8663 56.6321 61.1231 56.391 61.1442 56.391C61.1653 56.391 60.9429 56.6321 60.6501 56.9267C60.3573 57.2213 60.1004 57.4624 60.0793 57.4624C60.0582 57.4624 60.2806 57.2213 60.5735 56.9267ZM52.624 48.2226C52.8891 48.2076 53.303 48.2077 53.5438 48.2226C53.7846 48.2377 53.5676 48.2499 53.0617 48.2498C52.5558 48.2498 52.3589 48.2372 52.624 48.2222V48.2226ZM124.675 48.2226C124.94 48.2076 125.354 48.2077 125.595 48.2226C125.836 48.2377 125.619 48.2499 125.113 48.2498C124.607 48.2498 124.41 48.2372 124.675 48.2222V48.2226ZM55.1144 48.1465C55.316 48.1306 55.6264 48.1308 55.8043 48.1472C55.9822 48.1633 55.8173 48.1762 55.4379 48.176C55.0585 48.176 54.9129 48.1626 55.1144 48.1468V48.1465ZM122.413 48.1465C122.615 48.1306 122.925 48.1308 123.103 48.1472C123.281 48.1633 123.116 48.1762 122.737 48.176C122.357 48.176 122.212 48.1626 122.413 48.1468V48.1465Z" fill="#596372"/>
<path d="M22.1716 93.7355C21.667 93.2305 21.2714 92.8172 21.2925 92.8172C21.3136 92.8172 21.7437 93.2305 22.2482 93.7355C22.7528 94.2406 23.1484 94.6538 23.1273 94.6538C23.1062 94.6538 22.6761 94.2406 22.1716 93.7355ZM155.926 93.7355C156.431 93.2305 156.861 92.8172 156.882 92.8172C156.903 92.8172 156.508 93.2305 156.003 93.7355C155.498 94.2406 155.068 94.6538 155.047 94.6538C155.026 94.6538 155.422 94.2406 155.926 93.7355ZM20.0927 66.1863C20.0927 65.7023 20.1052 65.5043 20.1204 65.7463C20.1356 65.9883 20.1356 66.3843 20.1204 66.6263C20.1052 66.8684 20.0927 66.6703 20.0927 66.1863ZM158.063 66.1863C158.063 65.7023 158.076 65.5043 158.091 65.7463C158.106 65.9883 158.106 66.3843 158.091 66.6263C158.076 66.8684 158.063 66.6703 158.063 66.1863ZM9.60093 61.9774C9.9786 61.5986 10.3048 61.2887 10.3259 61.2887C10.347 61.2887 10.0552 61.5986 9.67757 61.9774C9.29991 62.3562 8.97367 62.6661 8.95258 62.6661C8.93149 62.6661 9.22327 62.3562 9.60093 61.9774ZM168.382 61.8626C168.068 61.547 167.828 61.2887 167.849 61.2887C167.87 61.2887 168.145 61.547 168.459 61.8626C168.773 62.1783 169.012 62.4366 168.991 62.4366C168.97 62.4366 168.696 62.1783 168.382 61.8626ZM12.0921 59.3373C12.3636 59.0637 12.6031 58.8399 12.6242 58.8399C12.6453 58.8399 12.4403 59.0637 12.1687 59.3373C11.8971 59.6109 11.6576 59.8347 11.6366 59.8347C11.6155 59.8347 11.8205 59.6109 12.0921 59.3373ZM166.004 59.3181L165.508 58.8016L166.025 59.2968C166.506 59.7567 166.577 59.8347 166.521 59.8347C166.509 59.8347 166.276 59.6022 166.004 59.3181ZM31.2208 36.2289C31.3027 36.1671 31.3372 36.1155 31.2975 36.1142C31.2578 36.1133 31.2921 36.0612 31.3742 35.9994C31.456 35.9375 31.4959 35.8859 31.4628 35.8846C31.4297 35.8837 31.4411 35.8104 31.4882 35.7225C31.5352 35.6348 31.5917 35.5809 31.6137 35.6028C31.6879 35.677 31.3051 36.3413 31.1881 36.3413C31.0994 36.3413 31.1071 36.3149 31.2209 36.2289H31.2208ZM33.2092 29.1479C33.5869 28.7691 33.9131 28.4592 33.9342 28.4592C33.9553 28.4592 33.6635 28.7691 33.2859 29.1479C32.9082 29.5267 32.582 29.8366 32.5609 29.8366C32.5398 29.8366 32.8316 29.5267 33.2092 29.1479ZM144.887 29.1287L144.199 28.4209L144.908 29.108C145.298 29.4859 145.617 29.8045 145.617 29.8159C145.617 29.8715 145.526 29.7861 144.887 29.1287ZM45.9693 14.3976L45.4733 13.881L45.9907 14.3762C46.2752 14.6486 46.508 14.881 46.508 14.8928C46.508 14.9491 46.43 14.8773 45.9693 14.3976ZM132.203 14.4167C132.475 14.1432 132.714 13.9193 132.735 13.9193C132.756 13.9193 132.551 14.1432 132.28 14.4167C132.008 14.6903 131.769 14.9142 131.748 14.9142C131.727 14.9142 131.932 14.6903 132.203 14.4167Z" fill="#736454"/>
<path d="M69.5798 84.0057C67.1383 83.5961 64.7459 82.3505 63.0226 80.5741C62.829 78.2145 65.0058 81.0338 65.8936 81.3797C67.6173 82.5688 69.766 82.8219 71.6532 83.1457C72.9009 82.789 74.6052 82.3118 76.0415 82.0232C79.4297 81.2509 82.459 79.4582 85.3512 77.605C86.3425 76.6919 88.9525 74.662 88.0504 73.6781C86.3617 72.3884 84.8998 70.7617 83.3005 69.41C81.5935 67.223 80.3485 64.7171 78.4655 62.6648C77.382 61.0066 76.1709 59.3702 75.397 57.5591C74.9516 55.2124 77.0703 53.3828 78.9965 52.5193C80.3738 51.6039 81.9517 50.28 83.8275 50.0561C87.1438 49.2868 90.6535 49.153 93.9718 49.9913C95.8679 50.2118 97.7451 51.2108 99.0097 52.489C100.763 53.104 103.18 54.8496 102.724 56.9645C102.819 58.8408 100.884 60.4388 100.079 62.1584C98.5311 63.9993 97.1887 65.987 95.8922 68.0127C94.7455 69.9632 92.7961 71.1372 91.3044 72.803C90.0498 73.5949 89.3012 74.0755 90.6332 75.3455C92.5697 77.9854 95.6823 79.2527 98.4647 80.7699C100.84 81.8981 103.493 82.1798 105.956 82.9969C107.143 83.2135 108.928 82.8261 110.297 82.3724C112.24 82.0965 113.563 79.7078 115.202 79.7298C115.308 82.0352 111.692 82.7857 109.971 83.7718C106.121 84.6394 102.243 83.1344 98.65 81.8834C96.4107 80.8747 94.2656 79.5841 92.3295 78.0733C90.7376 77.2008 90.06 74.4726 88.8956 73.9468C87.732 77.1541 84.7713 79.1276 81.9196 80.7175C78.6293 82.602 74.8551 83.5903 71.1108 84.0625C70.5999 84.1074 70.088 84.0497 69.5798 84.0057Z" fill="#148CFF"/>
<path d="M32.7854 98.5758L32.2894 98.0592L32.8068 98.5544C33.0914 98.8268 33.3242 99.0592 33.3242 99.071C33.3242 99.1273 33.2462 99.0556 32.7854 98.5758ZM145.31 98.5949C145.582 98.3213 145.821 98.0975 145.842 98.0975C145.864 98.0975 145.659 98.3213 145.387 98.5949C145.115 98.8685 144.876 99.0923 144.855 99.0923C144.834 99.0923 145.039 98.8685 145.31 98.5949ZM20.09 64.7706C20.0903 64.4339 20.1037 64.3057 20.1199 64.4856C20.1361 64.6656 20.1359 64.9411 20.1194 65.0979C20.1029 65.2546 20.0897 65.1073 20.09 64.7706H20.09ZM158.061 64.7706C158.061 64.4339 158.074 64.3057 158.091 64.4856C158.107 64.6656 158.106 64.9411 158.09 65.0979C158.073 65.2546 158.06 65.1073 158.06 64.7706H158.061ZM8.70029 58.5536C8.96377 58.5387 9.39492 58.5387 9.65841 58.5536C9.92189 58.5685 9.70629 58.5808 9.17933 58.5808C8.65237 58.5808 8.4368 58.5686 8.70029 58.5536ZM168.593 58.5536C168.856 58.5387 169.287 58.5387 169.551 58.5536C169.814 58.5685 169.599 58.5808 169.072 58.5808C168.545 58.5808 168.329 58.5686 168.593 58.5536ZM147.754 37.5894C147.75 37.5553 147.75 37.5016 147.754 37.4701C147.759 37.4385 147.733 37.4127 147.697 37.4127C147.641 37.4127 147.389 37.0835 147.127 36.668C146.98 36.4352 147.149 36.5991 147.341 36.8757C147.457 37.0433 147.588 37.1585 147.631 37.1317C147.677 37.1035 147.687 37.1204 147.655 37.1718C147.625 37.221 147.652 37.2802 147.714 37.3043C147.858 37.3593 147.933 37.5462 147.836 37.6061C147.796 37.6309 147.759 37.6234 147.754 37.5893L147.754 37.5894ZM30.5741 37.1893C30.617 37.0664 30.7037 36.9461 30.7666 36.9219C30.83 36.8977 30.8565 36.8384 30.8261 36.7892C30.7919 36.734 30.8046 36.721 30.8596 36.755C30.94 36.8046 30.9836 36.7091 30.9553 36.5461C30.9489 36.5114 30.9801 36.5051 31.0238 36.5321C31.0675 36.5591 31.077 36.6226 31.0449 36.6732C30.8666 36.9538 30.5412 37.4127 30.5204 37.4127C30.507 37.4127 30.5313 37.3122 30.5742 37.1893L30.5741 37.1893Z" fill="#725C44"/>
<path d="M46.8427 79.8461C46.8427 79.4252 46.8557 79.2628 46.8713 79.4852C46.8869 79.7075 46.8867 80.0519 46.8713 80.2504C46.8556 80.4489 46.8429 80.267 46.8431 79.8461H46.8427ZM131.388 79.8461C131.388 79.4252 131.401 79.2628 131.417 79.4852C131.432 79.7075 131.432 80.0519 131.417 80.2504C131.401 80.4489 131.388 80.267 131.388 79.8461H131.388Z" fill="#424E5D"/>
<path d="M52.8544 99.2262C46.619 90.6833 39.8137 82.53 34.1724 73.5605C33.0727 69.1085 37.8445 65.4704 39.7667 61.7468C43.2112 57.9885 46.5132 54.1103 49.7821 50.2023C51.7193 47.2573 56.8263 47.5839 59.5451 49.4728C61.7172 52.0542 64.8828 54.7025 60.7466 56.7101C56.3874 61.5274 51.8336 66.3706 48.7903 72.1576C47.1965 76.0156 45.9454 80.4503 47.8401 84.4497C49.758 89.2791 51.5732 94.0462 53.0835 99.0374C53.6125 99.3948 52.8553 99.6732 52.8544 99.2262ZM38.9193 78.9269C38.4049 78.2037 39.1266 80.0521 38.9193 78.9269V78.9269ZM125.075 99.4353C126.553 95.1768 127.549 90.802 129.621 86.7904C131.84 82.2449 131.872 77.0578 129.579 72.5238C126.557 66.222 121.436 61.2271 116.926 55.9942C112.497 54.281 118.585 49.0452 121.214 48.2089C125.624 47.3281 128.64 49.3478 130.915 53.0327C134.685 57.9628 139.534 62.0525 142.381 67.6651C146.913 71.8298 142.186 76.5379 139.601 80.2288C134.857 86.6944 130.052 93.2054 125.075 99.4353H125.075ZM139.562 78.8856C139.324 78.4186 139.009 80.0033 139.562 78.8856V78.8856ZM44.1702 44.3807C42.8601 40.717 47.3096 36.8751 49.7479 34.1819C52.9984 31.9175 56.9818 30.3789 60.9268 30.4959C63.776 32.7047 67.5046 34.493 69.1047 37.9598C71.7533 42.4407 65.7482 40.9531 64.3444 38.3748C60.7729 35.6758 55.1614 37.7648 51.5755 39.8781C48.7993 40.8672 47.0984 44.0914 44.1702 44.3807ZM133.315 44.2666C129.314 42.0154 125.684 38.232 120.862 37.494C115.968 35.3801 113.145 39.7945 109.245 41.0935C107.005 37.7365 112.328 33.8464 115.073 32.2444C117.469 28.9344 121.547 31.1378 124.676 31.9395C128.783 33.577 131.333 37.0217 133.73 40.5043C134.251 41.4708 135.795 44.8969 133.315 44.2666Z" fill="#005385"/>
</svg>
